#!OML:ASF F:\VICON\USERDATA\INSTALL\rory3\rory3.ASF
:FULLY-SPECIFIED
:DEGREES
27
root 0.9170340709456759 18.024002985629423 -1.99799490480442 -3.787646126596321 -3.062120103047079 1.7808252014997241
lfemur -4.226708134164824 -2.7323981499172287 -27.504786606850963
ltibia 26.403373852965824
lfoot -14.03153288929133 2.760762900455015
ltoes 0.033098726806047196
rfemur -27.370536529236716 0.14890829235738323 20.00487293157771
rtibia 68.29264615262628
rfoot -7.241769138500467 -5.684860016006171
rtoes 5.378317823577369
lowerback 10.723973150434828 0.4296420435900884 -2.3720474530493902
upperback 0.5508006945532115 0.31064132092527696 0.38072866286109885
thorax -5.363590775867625 0.21689820993679104 1.5522313984315215
lowerneck -16.224229631954998 -2.7245117718382974 -1.7642318191603377
upperneck 21.869796044415235 -3.3959051183811053 0.23020827006794176
head 9.666657060704493 -1.7026018066477293 -0.04734816386809329
lclavicle -2.499647839914854e-15 4.040849111084212e-16
lhumerus -30.59312958613306 0.453850718706126 82.7250764248576
lradius 23.872854089088335
lwrist 3.741662351412863
lhand -26.525522624393243 24.070741380757003
lfingers 7.12502
lthumb 0.038271339969826235 54.05404122695845
rclavicle -2.499647839914854e-15 4.040849111084212e-16
rhumerus -28.587933229259708 -18.707786015041336 -79.92345641175474
rradius 24.179072858626807
rwrist 5.8286962657223915
rhand -16.893222835936918 22.13668198052577
rfingers 7.12502
rthumb 9.338326697664755 -7.63162940549972
28
root 0.8800731154924404 17.99365259854452 -1.7336345767823413 -3.4530474561270603 -2.4660636705636483 2.2733077356804263
lfemur -1.6487070190614048 -2.5389395240800665 -28.22988912211282
ltibia 25.097230001821416
lfoot -15.346317222156433 3.361686495027514
ltoes 0.2573781876494792
rfemur -29.860188514033883 0.1473299229147802 19.726326972475018
rtibia 61.61322446042654
rfoot -8.70652362134991 -6.393178901964294
rtoes 2.3134029979588915
lowerback 10.6964988725904 0.09878071879148753 -3.045297205097758
upperback 0.5538699140675947 -0.2112709709942211 0.43617556273297176
thorax -5.313945914887397 -0.023789458269523056 2.077369921283285
lowerneck -16.306570544923645 -2.759369209503434 -1.9348198502358895
upperneck 21.82633705875507 -3.429820446374733 0.3162074407540725
head 9.656193900795461 -1.7186067694800196 -0.0030821358736957127
lclavicle -2.2792137225461708e-15 6.073314355409742e-16
lhumerus -28.947130913420306 -1.2986316056443912 82.76581232281399
lradius 25.443018845248723
lwrist 4.523073559498891
lhand -26.480554431660295 25.115376237819426
lfingers 7.12502
lthumb 0.08164877472236043 55.096211929571766
rclavicle -2.2792137225461708e-15 6.073314355409742e-16
rhumerus -29.00069376359185 -18.15791587332307 -79.94824460865813
rradius 24.504193179352285
rwrist 5.2739521452525615
rhand -16.775254425465885 22.124678356918007
rfingers 7.12502
rthumb 9.452124898866062 -7.638279675194079
29
root 0.8405137633912243 17.971069019802762 -0.6022048077910291 -2.9695755117363576 -1.7247320053587247 2.8367176216574017
lfemur 1.6985432871936545 -2.5095033544481766 -28.7857340503287
ltibia 22.631271942029677
lfoot -15.858621966740621 3.3309010682420634
ltoes 0.7178580046593734
rfemur -31.564057017805638 0.8414961489610664 19.01480277541659
rtibia 52.57559339506542
rfoot -8.384208613574282 -8.272931360808581
rtoes -0.2949626792823028
lowerback 10.543106111230026 -0.2551603464465535 -3.6905004986670082
upperback 0.5245618957709112 -0.7474763463149177 0.5565115476819134
thorax -5.2264288974348245 -0.27586644280266415 2.658348799017155
lowerneck -16.43921241700876 -2.7627704070773715 -2.0611396643814843
upperneck 21.73822298265178 -3.42582930231804 0.4003330964899132
head 9.650954974602914 -1.715510434641344 0.048233636227422425
lclavicle -1.9441893749171714e-15 9.152186069798405e-16
lhumerus -27.084631016504463 -3.0630624208308666 82.81310330070751
lradius 27.170395196143815
lwrist 5.613306357035167
lhand -26.294683501225055 26.225633806521355
lfingers 7.12502
lthumb 0.2610930870955933 56.204033408322644
rclavicle -1.9441893749171714e-15 9.152186069798405e-16
rhumerus -29.524126682195014 -17.885388592655286 -79.65353015564749
rradius 24.782836709826153
rwrist 4.895913800525823
rhand -16.73018485314046 22.23837686856535
rfingers 7.12502
rthumb 9.495592954995725 -7.522521494898042
30
root 0.8098925027826178 17.952168229503574 0.7646393325169587 -2.330348446900647 -1.0363518821000746 3.2082560488185865
lfemur 4.838675850457012 -2.3649617418790663 -29.02966427278918
ltibia 19.180016000445903
lfoot -16.064533008041874 3.066986317212743
ltoes 0.5590054964793647
rfemur -32.057999199492855 2.2766319952576475 17.90759237796913
rtibia 41.256564571464935
rfoot -7.707757448244063 -11.112402003436127
rtoes -1.9491718170431214
lowerback 10.230662874012056 -0.5232969003801783 -4.312137458233498
upperback 0.45160996103071854 -1.1669962353554344 0.6207439173136489
thorax -5.100124797702665 -0.4702286683339636 3.101391813216222
lowerneck -16.59943263066588 -2.766929687960268 -2.065084436141276
upperneck 21.595127676784397 -3.437379428529943 0.4443806482587337
head 9.623944427380993 -1.7150250819353627 0.06966467654768527
lclavicle -1.9363112668073666e-15 9.221273123991859e-16
lhumerus -25.422528534252358 -4.431257367911793 82.73217267339275
lradius 28.642285902372706
lwrist 6.45273842009971
lhand -26.365849710067426 27.15481020902558
lfingers 7.12502
lthumb 0.19229953323298044 57.12858415829217
rclavicle -1.936311266807366e-15 9.221273123991859e-16
rhumerus -29.97953997070766 -17.978996449523976 -79.45507433044257
rradius 24.722497927761218
rwrist 4.772535317460206
rhand -16.670180688935453 22.453394541029706
rfingers 7.12502
rthumb 9.553483903698005 -7.303817287787992
31
root 0.7579582632560548 17.92851288432833 1.9948670058784526 -1.6359572559043822 0.028912918037989233 3.8141172929158063
lfemur 9.368257056238651 -2.0997384608351384 -29.022309653977423
ltibia 15.454249955526105
lfoot -15.41196874682878 2.2354649164836164
ltoes 0.1410936958036908
rfemur -31.17160132792247 4.7596346557085045 16.160240953470705
rtibia 28.519424330796554
rfoot -6.663687534305979 -14.50264972798558
rtoes -3.048900624065164
lowerback 9.793191552373736 -0.835180276545051 -4.897761450678935
upperback 0.3481343450750214 -1.6328251435577052 0.7219405576576621
thorax -4.911266658046197 -0.6899095135860398 3.6874284836244473
lowerneck -16.715812637513384 -2.7656218493132387 -2.0464211317556966
upperneck 21.50094538221057 -3.443805249698488 0.5095642970724512
head 9.617383811553248 -1.7123529929153984 0.09824348942609032
lclavicle -1.3713402588649328e-15 1.4433193608082204e-15
lhumerus -23.49105416436758 -5.3415384146830025 82.51139028347767
lradius 30.070629356788864
lwrist 7.423229336181217
lhand -26.612666956943546 27.63271634677067
lfingers 7.12502
lthumb -0.04609368532801039 57.603683002421626
rclavicle -1.3713402588649328e-15 1.4433193608082204e-15
rhumerus -30.478077787148464 -18.733217000785967 -78.72720609762585
rradius 24.33977952129148
rwrist 5.42204635354573
rhand -16.76004973071254 23.071902483513934
rfingers 7.12502
rthumb 9.466761322780538 -6.690720487367807
32
root 0.6891201916882976 17.87487507400128 2.2218711307887364 -1.108270848056751 0.8302753412918347 4.065502996642319
lfemur 12.577423679909199 -2.1503418209049387 -29.34310207520006
ltibia 11.611372460903986
lfoot -15.629162006837714 0.9332719127110896
ltoes -1.9711432137074607
rfemur -30.690880259269075 6.61440395450853 14.265648846773079
rtibia 17.98717483048176
rfoot -6.608191404511231 -16.771119777576445
rtoes -4.982743519010867
lowerback 9.413865449423126 -1.174720643464084 -5.568162802225651
upperback 0.23521825685567674 -2.138673830207596 0.7570736682963548
thorax -4.785382264623543 -0.9282395606361094 4.018870557845906
lowerneck -16.81340042598513 -2.783015336151619 -2.0755342094066473
upperneck 21.41470319190485 -3.4733486793953907 0.5081700639290629
head 9.599135298154934 -1.7222335320382582 0.10010470040897038
lclavicle -1.882556600829597e-15 9.728783621848959e-16
lhumerus -22.325268798611198 -6.171986424671562 82.23487438006491
lradius 31.30465398016839
lwrist 7.929874095211847
lhand -27.03953058880338 27.375830365290163
lfingers 7.12502
lthumb -0.4583597887196128 57.344006900813504
rclavicle -1.882556600829597e-15 9.728783621848959e-16
rhumerus -31.139128070975644 -20.281239984124184 -78.1314347293472
rradius 23.54882876050812
rwrist 6.274000113943668
rhand -17.053724684045285 22.756428436262468
rfingers 7.12502
rthumb 9.183378163012778 -7.017018534021122
33
root 0.6046192414382354 17.804949225497054 3.194247521978123 -0.867751897532568 1.480228828104143 4.163599620808139
lfemur 15.42761224710889 -2.7313784740622293 -29.2324208310429
ltibia 9.95370794471241
lfoot -15.596243974369479 -0.12251118402787176
ltoes -4.942080844920241
rfemur -29.738964249958237 7.518422253896959 13.620674606513518
rtibia 12.910066059349372
rfoot -6.651613740149097 -16.466341425627178
rtoes -6.448161234875716
lowerback 9.217199587292905 -1.3520574204434417 -5.859725950391965
upperback 0.19808245652098785 -2.395095529686101 0.8502593538573421
thorax -4.688441633935483 -1.0495840876181524 4.28165870303559
lowerneck -16.948421459328916 -2.809689505576318 -2.1058374710371206
upperneck 21.368451878688727 -3.5162335299671215 0.55339538752349
head 9.60643131456787 -1.7362334673566238 0.10771868360635654
lclavicle -1.9700873155832223e-15 8.923836611417831e-16
lhumerus -21.489722986464187 -6.4161789894299925 82.0738567447345
lradius 32.13231235555008
lwrist 8.22125919525124
lhand -27.553781451775972 26.347075427773795
lfingers 7.12502
lthumb -0.9549787025644962 56.31301653505929
rclavicle -1.9700873155832223e-15 8.923836611417831e-16
rhumerus -31.703867545556033 -22.088846495018146 -77.23105973374759
rradius 22.685687782562496
rwrist 7.567622054682273
rhand -17.429026260981534 22.26938911862308
rfingers 7.12502
rthumb 8.821219581487185 -7.520036275290077
